<svg xmlns="http://www.w3.org/2000/svg" width="208.933" height="47.795" viewBox="0 0 208.933 47.795"><path d="M208.757 2.04c-.223-.517-.636-.917-1.16-1.123-.248-.1-.508-.147-.772-.147-.873 0-1.644.524-1.964 1.335l-5.487 13.91-5.49-13.91c-.002-.01-.006-.017-.01-.026-.008-.018-.017-.034-.022-.05-.02-.047-.04-.094-.064-.14l-.016-.025c-.3-.546-.814-.927-1.418-1.05l-.01-.002c-.063-.012-.125-.02-.186-.03-.012 0-.02 0-.03-.003-.067-.006-.136-.01-.206-.01h-18.188c-1.164 0-2.11.946-2.11 2.11s.946 2.11 2.11 2.11h5.973v16.773c0 1.165.947 2.11 2.11 2.11 1.163 0 2.108-.945 2.108-2.11V4.99h6.562l6.923 17.55c.01.02.02.04.027.06.003.003.003.006.003.01.28.643.85 1.092 1.525 1.223l.03.008c.048.01.1.017.15.022.013 0 .026.002.043.004.06.006.12.01.18.01h.005c.063 0 .126-.004.186-.01l.042-.004c.053-.006.102-.014.15-.02l.032-.01c.67-.13 1.24-.58 1.52-1.223.005-.004.005-.007.007-.01.01-.02.018-.04.026-.06l7.45-18.886c.208-.525.198-1.097-.026-1.615M42.232.914c-3.838-.78-7.59 1.695-8.374 5.535l-3.05 14.948L19.597 4.02l-.024-.03c-.084-.13-.177-.254-.27-.377-.05-.066-.094-.135-.145-.198-.093-.113-.192-.22-.29-.327-.162-.174-.33-.34-.502-.5-.06-.05-.113-.107-.174-.16-.093-.08-.196-.15-.295-.225-.09-.064-.17-.134-.262-.195-.077-.054-.162-.102-.245-.152-.116-.072-.228-.146-.348-.212-.036-.02-.076-.036-.113-.056-.253-.133-.52-.248-.793-.352-.12-.046-.24-.094-.363-.135-.08-.022-.164-.042-.246-.063-.144-.04-.292-.082-.44-.112-.01-.003-.022-.008-.037-.01-.078-.017-.156-.023-.235-.038-.14-.022-.28-.048-.422-.063-.104-.01-.207-.015-.312-.02-.128-.01-.255-.02-.384-.02-.108 0-.215.005-.32.008-.126.005-.25.01-.376.02-.105.01-.206.022-.308.04-.128.016-.256.03-.384.057-.096.017-.19.04-.283.06-.133.032-.266.063-.397.1-.09.028-.174.06-.26.09-.133.044-.264.088-.395.14-.09.037-.174.077-.26.12-.126.054-.248.108-.367.17-.097.052-.19.11-.287.167-.09.053-.188.1-.277.158-.014.008-.026.02-.04.03-.095.06-.184.13-.274.196-.1.073-.204.14-.3.218-.028.025-.055.052-.085.076-.458.38-.856.81-1.193 1.277-.04.055-.08.105-.12.16-.07.104-.133.214-.197.322-.057.09-.117.18-.17.273-.043.08-.077.164-.117.244-.102.206-.197.417-.28.634-.05.13-.1.26-.144.39-.023.08-.04.16-.062.237-.04.152-.086.302-.116.452-.002.014-.007.024-.01.037L.145 38.452c-.782 3.84 1.694 7.59 5.536 8.374.478.097.956.146 1.426.146 3.302 0 6.262-2.32 6.948-5.682l3.05-14.946 11.21 17.375c.007.01.013.02.02.028.15.23.312.446.487.658.052.062.108.12.16.18.13.145.265.285.407.42.065.064.134.128.202.19.152.134.313.262.48.382.05.04.1.08.15.117.218.154.446.293.685.423.048.024.1.047.147.07.19.097.383.187.583.27.083.03.164.06.248.088.17.062.343.115.52.165.094.024.187.052.282.073.057.013.114.033.173.044.123.024.248.037.37.058.085.012.17.027.254.036.27.032.537.053.802.053.02 0 .044-.004.065-.004.163 0 .328-.01.49-.022.068-.006.133-.017.198-.022.123-.014.245-.027.364-.046l.207-.037c.12-.024.243-.05.364-.08.06-.017.12-.03.182-.046.14-.04.28-.083.416-.13l.118-.038c.177-.066.356-.138.53-.218h.005c.165-.08.33-.163.492-.254.054-.03.107-.064.162-.096.082-.048.164-.094.244-.146.02-.012.04-.028.06-.04.147-.1.29-.204.432-.31.037-.03.077-.057.113-.086.167-.135.328-.28.483-.43.06-.057.112-.117.168-.174.097-.1.19-.2.283-.304.06-.07.112-.14.17-.21.08-.104.158-.207.235-.312.05-.074.1-.146.148-.22.073-.11.142-.226.21-.343.04-.072.082-.144.122-.218.062-.123.125-.25.182-.377l.096-.217c.054-.13.103-.265.148-.4.027-.074.054-.147.077-.223.044-.13.077-.268.11-.402.02-.078.042-.16.06-.24.002-.013.008-.026.01-.04l6.534-32.002c.787-3.84-1.69-7.59-5.532-8.374M163.288 1.54c-3.64-1.81-8.055-.323-9.863 3.317l-7.834 15.78-5.063-14.877c-.022-.07-.054-.134-.08-.202-.05-.135-.103-.27-.16-.403-.042-.098-.09-.19-.136-.283-.06-.122-.12-.243-.187-.36-.055-.1-.115-.194-.174-.29-.068-.105-.136-.21-.208-.316-.068-.1-.14-.19-.213-.284-.075-.094-.15-.188-.226-.278-.083-.098-.168-.188-.256-.28-.077-.08-.156-.162-.238-.24-.098-.093-.197-.18-.3-.27-.08-.067-.16-.138-.24-.203-.115-.088-.234-.172-.354-.254-.06-.043-.114-.086-.173-.127-.025-.016-.05-.026-.072-.042-.12-.078-.243-.146-.368-.215-.09-.05-.182-.105-.275-.152-.11-.055-.223-.103-.333-.15-.11-.05-.222-.103-.335-.146-.1-.037-.2-.068-.3-.102-.127-.042-.254-.088-.38-.122-.105-.03-.212-.05-.317-.075-.125-.027-.247-.06-.374-.08-.13-.023-.267-.037-.4-.054-.1-.01-.2-.027-.3-.035-.15-.012-.31-.014-.466-.016-.078-.002-.158-.008-.24-.006-.148.003-.3.017-.453.03-.085.007-.175.01-.26.02-.13.014-.26.04-.388.062-.113.018-.226.035-.335.06-.108.024-.214.054-.318.083-.135.034-.27.07-.402.112-.025.01-.05.014-.08.022-.067.024-.133.056-.2.08-.138.05-.27.104-.403.16-.098.043-.19.09-.283.136-.122.06-.244.12-.36.188-.1.056-.19.114-.286.173-.11.07-.215.137-.32.21-.096.067-.19.14-.28.21-.098.075-.19.15-.284.23-.094.08-.183.164-.27.25-.085.078-.17.158-.25.244-.09.094-.176.19-.263.29-.07.084-.142.165-.21.253-.086.11-.168.225-.247.34-.044.062-.093.12-.132.182L117.295 19.6l-1.79-11.687c-.617-4.018-4.376-6.777-8.388-6.16-4.02.617-6.776 4.373-6.16 8.39l4.707 30.714c.012.07.03.137.04.205.022.108.042.217.066.323.03.126.06.25.098.375.025.094.05.187.082.278.044.136.094.266.145.396.03.082.062.162.097.242.06.137.124.27.19.4.04.073.074.146.113.22.072.134.154.26.234.386.042.07.08.14.127.203.1.147.207.288.315.426.062.08.128.16.196.235.114.13.23.262.353.386.065.064.135.126.202.19.104.096.207.19.314.28.072.06.146.116.22.173.118.088.234.174.354.256.037.022.068.052.105.075.057.037.115.068.172.104l.2.12c.117.067.236.13.355.188.057.03.113.06.174.088.364.172.738.31 1.117.418.057.016.114.03.172.043.14.036.275.066.41.096l.21.037c.136.022.27.04.4.055.068.006.138.016.206.02.187.017.374.025.56.027h.025c.275 0 .543-.02.812-.048.057-.006.117-.012.175-.02.05-.007.1-.01.146-.018.168-.026.33-.064.492-.102.066-.014.134-.023.198-.04.277-.07.542-.153.8-.25.046-.017.088-.038.13-.058.215-.085.424-.18.63-.282.076-.04.15-.084.228-.125.167-.096.332-.197.49-.305.08-.052.16-.104.237-.16.17-.123.333-.256.49-.394.053-.043.11-.086.16-.133.202-.185.39-.383.572-.59.05-.06.103-.125.153-.19.134-.162.262-.33.38-.508.03-.042.06-.076.09-.12l12.367-18.952 5.882 17.278v.002l.008.024c.07.206.15.406.236.6.024.054.052.102.075.154.068.15.145.298.22.442l.11.18c.076.134.157.263.244.388.038.06.08.12.124.18.092.128.19.253.29.373.04.05.08.1.122.145.14.164.29.322.443.47.033.034.07.063.104.095.128.117.256.23.393.34.06.047.123.094.186.14.123.093.248.18.375.265.06.04.12.08.184.12.19.115.385.228.584.326l.002.002.01.004c.225.11.457.21.695.297.06.02.123.045.186.066.23.08.464.15.702.207.035.008.072.013.11.02.206.047.418.083.63.11l.203.023c.244.025.49.04.736.04l.076-.002c.155 0 .312-.007.465-.02.074-.003.145-.015.216-.02.113-.012.228-.025.34-.043.075-.01.15-.024.224-.037.115-.02.23-.047.34-.07.07-.018.142-.034.21-.053.128-.033.256-.07.382-.112.04-.013.082-.02.12-.035l.035-.015c.208-.07.41-.152.612-.242.05-.02.098-.047.15-.07.15-.074.307-.153.456-.24.05-.026.098-.054.146-.08.18-.108.354-.222.524-.345.043-.03.086-.064.128-.096.135-.103.265-.21.393-.318l.13-.112c.313-.287.606-.602.872-.947l.095-.127c.102-.136.196-.276.29-.422.025-.043.056-.086.083-.13.106-.18.21-.36.304-.55l15.694-31.61c1.81-3.64.323-8.058-3.318-9.865M73.92 0C60.724 0 50.023 10.7 50.023 23.898c0 13.195 10.7 23.896 23.896 23.896 13.198 0 23.897-10.7 23.897-23.896C97.817 10.698 87.12 0 73.92 0" fill="#fff"></path></svg>